<svg id="Layer_2" data-name="Layer 2" xmlns="http://www.w3.org/2000/svg" viewBox="0 0 536.96 395.73"><defs><style>.cls-1{fill:#1976d2;}.cls-2{fill:#ffc107;}.cls-3{fill:#a51c30;}.cls-4,.cls-5{fill:none;stroke:#adadad;stroke-miterlimit:10;}.cls-4{stroke-width:9.64px;}.cls-5{stroke-width:7.23px;}</style></defs><path class="cls-1" d="M216.21,84.37H190.75c-1.47,0-1.51,0-1.48-1.46a73.17,73.17,0,0,1,.23-7.56,13.35,13.35,0,0,1,12.43-11.17c1.37,0,2.74-.08,4.1,0a3.87,3.87,0,0,1,1.85.58,14.31,14.31,0,0,0,16.91,0,2.67,2.67,0,0,1,1.23-.55c4.11-.27,8.14-.11,11.62,2.56a13.41,13.41,0,0,1,5.49,10.64c.07,1.89,0,3.78,0,5.68,0,1.07-.43,1.28-1.39,1.28C233.26,84.35,224.74,84.37,216.21,84.37Z"/><path class="cls-1" d="M229.72,41.38c-.17,5.27-1,9.69-3.57,13.65-3.38,5.26-9.82,7.13-15,4.3a13.84,13.84,0,0,1-5.86-6.56c-2.48-5.27-3.42-10.76-1.71-16.43,1.89-6.27,7.07-9.72,13.66-9.37a12.94,12.94,0,0,1,12,10.68C229.53,39.08,229.61,40.56,229.72,41.38Z"/><path class="cls-2" d="M475.48,358.64H450c-1.49,0-1.52,0-1.5-1.45a70.84,70.84,0,0,1,.23-7.58,13.38,13.38,0,0,1,12.55-11.21c.25,0,.5,0,.74,0a5.21,5.21,0,0,1,4.5,1.62,13.08,13.08,0,0,0,17.66.21c2.08-1.93,4.18-2.07,6.55-1.7,7.15,1.11,11.76,6.56,11.79,13.81,0,1.68,0,3.37,0,5.06,0,1-.34,1.28-1.3,1.28C492.64,358.63,484.06,358.64,475.48,358.64Z"/><path class="cls-2" d="M482,305.91c4.84.56,7.1,1.67,7.06,5a22.1,22.1,0,0,1-.22,2.93c-.47,3.26-.87,6.53-1.51,9.76a16.67,16.67,0,0,1-4,8,10.35,10.35,0,0,1-16.36-.67A21.07,21.07,0,0,1,463,320.39a47,47,0,0,0-.93-5.88c-1.79-7.11,2.74-13.48,10.16-14.49a33.87,33.87,0,0,1,9.68.52C483.45,300.92,481.68,304.3,482,305.91Z"/><path class="cls-3" d="M80.54,250.34H50.1c-1.83,0-1.81-.07-1.91-1.85-.62-11.54,5.05-19.32,14.71-24.72a12.82,12.82,0,0,1,2.13-.86,4.11,4.11,0,0,1,4.39.87,16.67,16.67,0,0,0,10.48,4.59A16.11,16.11,0,0,0,91.32,224a4.77,4.77,0,0,1,5.3-.89c8.87,3.19,16,13.21,16.24,22.77,0,1.06,0,2.12,0,3.17s-.41,1.33-1.31,1.31c-.48,0-1,0-1.45,0Z"/><path class="cls-3" d="M67.89,213.32a2.21,2.21,0,0,0-2.15-.86c-3.29.53-9.62.14-10-1.2s6.57-5.22,7.18-9.89c.42-3.28.4-6.62.92-9.88a21.59,21.59,0,0,1,6.23-12.4c6.76-6.57,16.32-5.89,22.25,1.43,3.8,4.69,5.19,10.22,5.52,16.12a42.06,42.06,0,0,0,.5,5.73c.83,4.29,2.89,7.44,6.84,8.72a.65.65,0,0,1,0,1.26,24.15,24.15,0,0,1-9.8-.06c-1.1-.25-1.54.1-2.22.9a45.55,45.55,0,0,1-6,6.32c-4.16,3.32-9,3.22-13.3.05a25.92,25.92,0,0,1-3.71-3.39A31.41,31.41,0,0,1,67.89,213.32Z"/><g id="Shield"><path class="cls-4" d="M20.76,161.4H140.23c0,.16,0,.32,0,.48q0,20.53,0,41.06a99.53,99.53,0,0,1-14.34,51.63,123.82,123.82,0,0,1-24.23,29.11,125,125,0,0,1-20,14.82c-1.15.68-1.15.67-2.31,0A120.75,120.75,0,0,1,63.65,287.4a131,131,0,0,1-21.34-22.11,105.26,105.26,0,0,1-18.68-38.46A93.29,93.29,0,0,1,21,209.09c-.13-2.39-.19-4.79-.19-7.18q0-19.9,0-39.8Z"/></g><circle class="cls-5" cx="215.54" cy="60.9" r="46.16"/><circle class="cls-5" cx="475.49" cy="335.16" r="46.16"/><line class="cls-5" x1="140.23" y1="161.4" x2="188.78" y2="99.32"/><line class="cls-5" x1="125.91" y1="254.57" x2="429.78" y2="335.32"/></svg>