<svg id="Layer_1" data-name="Layer 1" xmlns="http://www.w3.org/2000/svg" viewBox="0 0 137.09 140.19"><defs><style>.cls-1{fill:#a51c30;}.cls-2,.cls-3,.cls-4,.cls-5{fill:none;stroke:#fff;stroke-miterlimit:10;}.cls-2{stroke-width:1.55px;}.cls-3{stroke-width:1.65px;}.cls-4{stroke-width:3.31px;}.cls-5{stroke-width:2.48px;}</style></defs><rect class="cls-1" width="137.09" height="140.19"/><path class="cls-2" d="M84.13,37.16H75.4c-.5,0-.52,0-.51-.5A24.9,24.9,0,0,1,75,34.07a4.59,4.59,0,0,1,4.26-3.83c.47,0,.94,0,1.41,0a1.55,1.55,0,0,1,.63.2,4.89,4.89,0,0,0,5.8,0,1.05,1.05,0,0,1,.42-.19,5.64,5.64,0,0,1,4,.88,4.6,4.6,0,0,1,1.88,3.65c0,.65,0,1.3,0,1.95,0,.36-.14.44-.47.44Z"/><path class="cls-2" d="M88.76,22.08a8.85,8.85,0,0,1-1.22,4.68,3.89,3.89,0,0,1-5.16,1.47,4.76,4.76,0,0,1-2-2.24,7.68,7.68,0,0,1-.58-5.64,4.38,4.38,0,0,1,4.68-3.21,4.43,4.43,0,0,1,4.12,3.66A10.6,10.6,0,0,1,88.76,22.08Z"/><path class="cls-3" d="M108.91,120.93h-8.75c-.51,0-.52,0-.51-.5a25,25,0,0,1,.08-2.6A4.59,4.59,0,0,1,104,114h.26a1.8,1.8,0,0,1,1.54.56,4.5,4.5,0,0,0,6.06.07,2.41,2.41,0,0,1,2.24-.58,4.6,4.6,0,0,1,4,4.73c0,.58,0,1.16,0,1.74,0,.33-.12.43-.44.43Z"/><path class="cls-3" d="M111.13,102.5c1.66.2,2.43.92,2.42,2a8.4,8.4,0,0,1-.07,1c-.17,1.12-.3,2.24-.52,3.35a5.81,5.81,0,0,1-1.36,2.75,3.54,3.54,0,0,1-5.61-.23,7.14,7.14,0,0,1-1.34-3.61,17.66,17.66,0,0,0-.32-2,3.94,3.94,0,0,1,3.48-5,11.57,11.57,0,0,1,3.32.18C111.64,101.14,111,102,111.13,102.5Z"/><path class="cls-3" d="M35.89,84.82H25.45c-.62,0-.62,0-.65-.64-.21-4,1.73-6.62,5-8.47a4.66,4.66,0,0,1,.73-.3,1.42,1.42,0,0,1,1.51.3,5.76,5.76,0,0,0,3.59,1.58,5.57,5.57,0,0,0,3.92-1.51,1.64,1.64,0,0,1,1.82-.3A9,9,0,0,1,47,83.29c0,.36,0,.72,0,1.09s-.14.45-.45.44H35.89Z"/><path class="cls-3" d="M31.55,71.09a.76.76,0,0,0-.73-.29c-1.13.18-3.3,0-3.44-.41S29.64,68.6,29.84,67c.15-1.13.14-2.27.32-3.39a7.38,7.38,0,0,1,2.14-4.25,5,5,0,0,1,7.63.49,9.26,9.26,0,0,1,1.89,5.53,16,16,0,0,0,.17,2,3.54,3.54,0,0,0,2.35,3,.22.22,0,0,1,0,.43,8.1,8.1,0,0,1-3.36,0,.66.66,0,0,0-.76.31,16.3,16.3,0,0,1-2.06,2.17,3.54,3.54,0,0,1-4.56,0,8.89,8.89,0,0,1-1.28-1.17A11,11,0,0,1,31.55,71.09Z"/><g id="Shield"><path class="cls-4" d="M15.39,53.29h41c0,.06,0,.11,0,.17V67.53a34.22,34.22,0,0,1-4.92,17.71,42.64,42.64,0,0,1-8.31,10,43.88,43.88,0,0,1-6.87,5.08c-.39.23-.39.23-.79,0a41.12,41.12,0,0,1-5.38-3.8,45.27,45.27,0,0,1-7.32-7.58,36.23,36.23,0,0,1-6.41-13.19,32.93,32.93,0,0,1-.91-6.09c0-.82-.06-1.64-.07-2.46V53.29Z"/></g><circle class="cls-5" cx="83.9" cy="29.12" r="15.83"/><circle class="cls-5" cx="108.91" cy="112.88" r="15.83"/><line class="cls-5" x1="56.36" y1="53.29" x2="72.27" y2="39.72"/><line class="cls-5" x1="51.45" y1="85.24" x2="93.08" y2="106.85"/></svg>